<svg width="112" height="55" xmlns="http://www.w3.org/2000/svg">

 <g>
  <title>Layer 1</title>
  <path id="svg_5" d="m7.77344,50.68505c-2.12,0 -3.94,-0.75 -5.474,-2.25s-2.3,-3.304 -2.3,-5.408s0.765,-3.908 2.3,-5.408s3.357,-2.251 5.474,-2.251a7.32,7.32 0 0 1 5.249,2.11l-1.477,1.477a5.32,5.32 0 0 0 -3.773,-1.495c-1.53,0 -2.83,0.54 -3.896,1.627a5.41,5.41 0 0 0 -1.597,3.941c0,1.546 0.53,2.857 1.597,3.94a5.25,5.25 0 0 0 3.896,1.627c1.558,0 2.845,-0.5 3.87,-1.534c0.6,-0.6 1,-1.5 1.14,-2.635l-5.006,0l0,-2.092l7.044,0c0.075,0.372 0.1,0.8 0.1,1.3c0,2.056 -0.603,3.686 -1.813,4.895c-1.372,1.435 -3.15,2.15 -5.345,2.15l0.011,0.006zm16.37,-1.4c-0.96,0.94 -2.13,1.4 -3.512,1.4s-2.554,-0.47 -3.512,-1.4s-1.438,-2.113 -1.438,-3.52s0.48,-2.58 1.438,-3.52s2.13,-1.4 3.512,-1.4s2.554,0.47 3.512,1.4s1.438,2.116 1.438,3.52s-0.48,2.58 -1.438,3.52zm-5.474,-1.38a2.63,2.63 0 0 0 1.963,0.849c0.76,0 1.414,-0.282 1.963,-0.85s0.822,-1.28 0.822,-2.14c0,-0.87 -0.27,-1.588 -0.813,-2.15s-1.198,-0.84 -1.972,-0.84a2.64,2.64 0 0 0 -1.972,0.84c-0.543,0.56 -0.813,1.292 -0.813,2.15c0,0.858 0.273,1.573 0.822,2.14l0,0.001zm16.273,1.38c-0.96,0.94 -2.13,1.4 -3.512,1.4s-2.554,-0.47 -3.512,-1.4s-1.438,-2.113 -1.438,-3.52s0.48,-2.58 1.438,-3.52s2.13,-1.4 3.512,-1.4s2.554,0.47 3.512,1.4s1.438,2.116 1.438,3.52s-0.48,2.58 -1.438,3.52zm-5.474,-1.38a2.63,2.63 0 0 0 1.963,0.849c0.76,0 1.414,-0.282 1.963,-0.85s0.822,-1.28 0.822,-2.14c0,-0.87 -0.27,-1.588 -0.813,-2.15s-1.198,-0.84 -1.972,-0.84a2.64,2.64 0 0 0 -1.972,0.84c-0.543,0.56 -0.813,1.276 -0.813,2.15c0,0.858 0.273,1.573 0.822,2.14l0,0.001zm12.573,7.22c-1.095,0 -2.017,-0.294 -2.764,-0.88s-1.282,-1.264 -1.606,-2.038l1.888,-0.783c0.198,0.474 0.5,0.885 0.933,1.234s0.94,0.522 1.552,0.522c0.822,0 1.468,-0.25 1.933,-0.747s0.7,-1.216 0.7,-2.15l0,-0.7l-0.075,0c-0.6,0.747 -1.477,1.122 -2.596,1.122c-1.258,0 -2.36,-0.48 -3.307,-1.438a4.76,4.76 0 0 1 -1.42,-3.476a4.82,4.82 0 0 1 1.42,-3.503c0.945,-0.963 2.05,-1.447 3.307,-1.447c0.56,0 1.068,0.105 1.522,0.318s0.813,0.474 1.074,0.783l0.075,0l0,-0.794l2.056,0l0,8.857c0,1.72 -0.438,3.004 -1.318,3.86c-0.88,0.85 -2.002,1.28 -3.373,1.28l-0.001,-0.02zm0.15,-6.372a2.41,2.41 0 0 0 1.879,-0.849c0.504,-0.567 0.756,-1.273 0.756,-2.122c0,-0.858 -0.252,-1.576 -0.756,-2.15a2.4,2.4 0 0 0 -1.879,-0.858c-0.76,0 -1.408,0.288 -1.942,0.858s-0.804,1.288 -0.804,2.15c0,0.846 0.267,1.555 0.804,2.122s1.183,0.85 1.942,0.85l0,-0.001zm8.202,-12.865l0,14.5l-2.167,0l0,-14.5l2.167,0zm5.94,14.796c-1.396,0 -2.56,-0.474 -3.494,-1.42s-1.402,-2.116 -1.402,-3.512c0,-1.444 0.45,-2.63 1.354,-3.55a4.45,4.45 0 0 1 3.298,-1.384c0.597,0 1.153,0.108 1.663,0.327a3.92,3.92 0 0 1 1.27,0.84a5.84,5.84 0 0 1 0.804,0.999a6.12,6.12 0 0 1 0.486,0.972l0.225,0.56l-6.594,2.732c0.5,0.996 1.3,1.495 2.392,1.495c0.996,0 1.807,-0.453 2.428,-1.363l1.68,1.122c-0.375,0.56 -0.903,1.065 -1.588,1.513s-1.528,0.67 -2.524,0.67l0.002,-0.001zm-2.746,-5.08l4.4,-1.83c-0.126,-0.312 -0.354,-0.564 -0.7,-0.756a2.26,2.26 0 0 0 -1.14,-0.288c-0.636,0 -1.23,0.26 -1.783,0.783s-0.82,1.222 -0.795,2.092l0.018,-0.001zm18.33,5.08c-1.97,0 -3.62,-0.666 -4.952,-2s-2,-2.995 -2,-4.988s0.666,-3.656 2,-4.988s2.983,-2 4.952,-2c2.017,0 3.656,0.73 4.913,2.185l-1.195,1.16c-0.9,-1.134 -2.15,-1.7 -3.72,-1.7c-1.46,0 -2.686,0.492 -3.7,1.477s-1.504,2.272 -1.504,3.866s0.5,2.884 1.504,3.87s2.233,1.477 3.7,1.477c1.606,0 2.977,-0.648 4.1,-1.942l1.195,1.195a6.51,6.51 0 0 1 -2.3,1.747a7.02,7.02 0 0 1 -3.004,0.642l0.011,-0.001zm8.556,-0.296l-1.72,0l0,-13.377l1.72,0l0,13.377zm2.803,-8.06c0.885,-0.927 2,-1.393 3.382,-1.393s2.497,0.465 3.382,1.393s1.327,2.1 1.327,3.485s-0.44,2.557 -1.327,3.485s-2,1.393 -3.382,1.393s-2.497,-0.465 -3.382,-1.393s-1.327,-2.1 -1.327,-3.485s0.44,-2.557 1.327,-3.485zm1.28,5.883c0.6,0.603 1.294,0.906 2.1,0.906s1.5,-0.303 2.1,-0.906s0.888,-1.405 0.888,-2.4s-0.297,-1.798 -0.888,-2.4s-1.294,-0.906 -2.1,-0.906s-1.5,0.303 -2.1,0.906s-0.888,1.405 -0.888,2.4s0.297,1.798 0.888,2.4zm16.32,2.177l-1.645,0l0,-1.27l-0.075,0c-0.26,0.435 -0.66,0.807 -1.195,1.1s-1.1,0.46 -1.7,0.46c-1.147,0 -2.014,-0.348 -2.605,-1.047s-0.888,-1.633 -0.888,-2.803l0,-5.606l1.72,0l0,5.324c0,1.708 0.753,2.56 2.26,2.56a2.1,2.1 0 0 0 1.738,-0.858a3.13,3.13 0 0 0 0.672,-1.981l0,-5.045l1.72,0l0,9.157l-0.002,0.009zm5.828,0.297c-1.183,0 -2.206,-0.468 -3.064,-1.402s-1.288,-2.092 -1.288,-3.476s0.43,-2.542 1.288,-3.476s1.882,-1.402 3.064,-1.402c0.696,0 1.324,0.15 1.88,0.447s0.97,0.672 1.243,1.122l0.075,0l-0.075,-1.27l0,-4.22l1.72,0l0,13.38l-1.645,0l0,-1.27l-0.075,0c-0.273,0.447 -0.687,0.822 -1.243,1.122c-0.555,0.294 -1.183,0.444 -1.88,0.444l0,0.001zm0.28,-1.57a2.74,2.74 0 0 0 2.065,-0.897c0.567,-0.597 0.85,-1.402 0.85,-2.4s-0.282,-1.813 -0.85,-2.4a2.74,2.74 0 0 0 -2.065,-0.897c-0.798,0 -1.483,0.303 -2.056,0.906s-0.858,1.405 -0.858,2.4s0.285,1.798 0.858,2.4a2.73,2.73 0 0 0 2.056,0.906l0,-0.018z" opacity="undefined" fill="#e0e2e5"/>
  <g id="svg_6">
   <path id="svg_1" fill="#ea4335" d="m60.64344,7.93919l1.144,0.02l3.108,-3.108l0.15,-1.317c-2.47,-2.197 -5.72,-3.534 -9.277,-3.534c-6.44,0 -11.876,4.382 -13.486,10.318c0.34,-0.237 1.065,-0.06 1.065,-0.06l6.212,-1.022s0.32,-0.53 0.48,-0.497a7.76,7.76 0 0 1 10.605,-0.8l-0.001,0z"/>
   <path id="svg_2" fill="#4285f4" d="m69.27344,10.32919a13.99,13.99 0 0 0 -4.216,-6.796l-4.402,4.402a7.75,7.75 0 0 1 2.895,6.039l0,0.777c2.142,0 3.88,1.743 3.88,3.88s-1.743,3.88 -3.88,3.88l-7.762,0l-0.777,0.78l0,4.658l0.777,0.773l7.762,0a10.11,10.11 0 0 0 10.083,-10.09c-0.004,-3.436 -1.736,-6.48 -4.37,-8.303l0.01,0z"/>
   <path id="svg_3" fill="#34a853" d="m48.00744,28.72919l7.76,0l0,-6.212l-7.76,0a3.84,3.84 0 0 1 -1.597,-0.347l-1.12,0.343l-3.108,3.108l-0.272,1.05a9.96,9.96 0 0 0 6.098,2.06l-0.001,-0.002z"/>
   <path id="svg_4" fill="#fbbc05" d="m48.00744,8.54219a10.11,10.11 0 0 0 -10.094,10.094a10.08,10.08 0 0 0 4,8.04l4.5,-4.5a3.88,3.88 0 0 1 -2.288,-3.538c0,-2.142 1.743,-3.88 3.88,-3.88a3.89,3.89 0 0 1 3.538,2.288l4.5,-4.5c-1.846,-2.43 -4.76,-4 -8.04,-4l0.004,-0.004z"/>
  </g>
 </g>
</svg>