<svg width="107" height="33" xmlns="http://www.w3.org/2000/svg">
 <g>
  <title>Layer 1</title>
  <g id="svg_1">
   <path id="svg_2" d="m43.93445,21.16422l2.78,0l2.834,-9.444l-2.7,0l-1.678,6.7l-1.8,-6.7l-2.346,0l-1.806,6.7l-1.662,-6.7l-2.7,0l2.818,9.444l2.78,0l1.753,-6.05l1.727,6.05zm5.76,-4.695c0,2.834 1.93,4.93 4.968,4.93c2.35,0 3.613,-1.41 3.974,-2.076l-1.645,-1.247c-0.27,0.398 -1.01,1.156 -2.295,1.156c-1.392,0 -2.403,-0.903 -2.457,-2.167l6.65,0c0.017,-0.182 0.017,-0.36 0.017,-0.543c0,-3.087 -1.662,-5.04 -4.587,-5.04c-2.693,0 -4.624,2.13 -4.624,4.985l-0.001,0.002zm2.62,-1.03c0.108,-1.082 0.866,-1.914 2.042,-1.914c1.14,0 1.968,0.758 2.022,1.914l-4.064,0zm7.533,5.726l2.35,0l0,-0.974c0.253,0.307 1.193,1.2 2.8,1.2c2.7,0 4.624,-2.04 4.624,-4.948c0,-2.925 -1.77,-4.964 -4.48,-4.964c-1.624,0 -2.565,0.903 -2.8,1.227l0,-4.607l-2.49,0l0,13.065l-0.004,0.001zm2.42,-4.695c0,-1.77 1.048,-2.78 2.42,-2.78c1.446,0 2.42,1.14 2.42,2.78c0,1.678 -1.01,2.727 -2.42,2.727c-1.517,0 -2.42,-1.23 -2.42,-2.727zm8.325,8.072l2.49,0l0,-4.354c0.236,0.307 1.173,1.2 2.8,1.2c2.7,0 4.48,-2.04 4.48,-4.964c0,-2.888 -1.914,-4.948 -4.624,-4.948c-1.608,0 -2.548,0.903 -2.8,1.227l0,-0.994l-2.35,0l0,12.824l0.004,0.009zm2.42,-8.126c0,-1.5 0.903,-2.727 2.42,-2.727c1.41,0 2.42,1.048 2.42,2.727c0,1.645 -0.974,2.78 -2.42,2.78c-1.372,0 -2.42,-1.01 -2.42,-2.78zm7.802,1.823c0,1.985 1.624,3.16 3.54,3.16c1.085,0 1.806,-0.324 2.295,-0.85l0.162,0.613l2.204,0l0,-5.98c0,-2.113 -0.903,-3.7 -3.937,-3.7a7.05,7.05 0 0 0 -3.721,1.119l0.94,1.7c0.704,-0.36 1.57,-0.667 2.51,-0.667c1.102,0 1.715,0.56 1.715,1.392l0,0.613c-0.344,-0.236 -1.085,-0.522 -2.042,-0.522c-2.204,-0.003 -3.667,1.26 -3.667,3.12l0.001,0.002zm2.49,-0.074c0,-0.775 0.667,-1.318 1.624,-1.318s1.645,0.49 1.645,1.318c0,0.795 -0.688,1.3 -1.624,1.3s-1.645,-0.522 -1.645,-1.3zm11.76,1.03c-1.57,0 -2.7,-1.14 -2.7,-2.743c0,-1.517 0.994,-2.764 2.602,-2.764c1.065,0 1.8,0.522 2.204,0.903l0.704,-2.096c-0.613,-0.468 -1.59,-1.01 -2.98,-1.01c-2.872,0 -5.022,2.113 -5.022,4.985s2.096,4.93 5.04,4.93c1.372,0 2.403,-0.576 2.942,-1.01l-0.667,-2.04c-0.418,0.34 -1.176,0.846 -2.133,0.846l0.01,-0.001zm3.738,1.968l2.49,0l0,-4.877l3.16,4.877l2.925,0l-3.576,-5.167l3.323,-4.28l-2.8,0l-3.033,3.974l0,-7.583l-2.49,0l0.001,13.056z" fill="#e5e5e5"/>
   <path id="svg_3" d="m28.52945,25.16222l-13.23,7.485l0,-5.828l8.244,-4.536l4.986,2.879zm0.906,-0.82l0,-15.65l-4.84,2.797l0,10.06l4.84,2.793zm-28.53,0.82l13.23,7.485l0,-5.828l-8.246,-4.537l-4.984,2.88zm-0.906,-0.82l0,-15.65l4.84,2.797l0,10.06l-4.84,2.793zm0.568,-16.665l13.57,-7.676l0,5.633l-8.764,4.822l-4.806,-2.779zm28.3,0l-13.57,-7.676l0,5.633l8.764,4.818l4.806,-2.775z" fill="#8ed6fb"/>
   <path id="svg_4" d="m14.13945,25.74722l-8.135,-4.475l0,-8.86l8.135,4.696l0,8.639zm1.162,0l8.135,-4.47l0,-8.864l-8.135,4.696l0,8.638zm-0.58,-8.976zm-8.166,-5.382l8.166,-4.488l8.166,4.488l-8.166,4.714l-8.166,-4.714z" fill="#1c78c0"/>
  </g>
 </g>

</svg>